<?xml version="1.0" encoding="iso-8859-1"?>
<!-- Generator: Adobe Illustrator 19.0.0, SVG Export Plug-In . SVG Version: 6.00 Build 0)  -->
<svg version="1.1" id="Capa_1" xmlns="http://www.w3.org/2000/svg" xmlns:xlink="http://www.w3.org/1999/xlink" x="0px" y="0px"
	 viewBox="0 0 512.001 512.001" style="enable-background:new 0 0 512.001 512.001;" xml:space="preserve">
	<g transform="matrix(1.4960107,0,0,1.4960107,-120.45881,-129.12591)">
		<path d="m 92.061231,425.13818 c -3.07541,-1.33368 -5.627354,-3.62124 -7.014988,-6.28822 -1.535661,-2.95151 -1.531658,-135.57459 0.0028,-138.51443 1.383797,-2.6488 4.716328,-5.72305 7.235773,-6.67498 2.869287,-1.08407 133.285784,-1.08407 136.155044,0 2.51944,0.95193 5.85197,4.02618 7.2358,6.67498 1.32443,2.53515 1.32675,8.85435 0.006,11.3963 -1.42068,2.73051 -3.98132,4.98524 -7.17892,6.32127 -2.3646,0.98792 -9.93325,1.13073 -59.93296,1.13073 -43.53552,0 -57.43636,0.20985 -58.10329,0.87668 -0.66434,0.66434 -0.87667,12.68398 -0.87667,49.62615 0,43.34364 0.12729,48.87681 1.14801,49.89754 1.02056,1.02054 6.52126,1.14802 49.53872,1.14802 37.5739,0 48.66377,-0.20406 49.61243,-0.91321 1.10295,-0.82441 1.24082,-3.93742 1.41811,-32.01988 0,0 -0.30501,-20.9081 0.19632,-31.10664 0.29493,-5.99977 6.57103,-8.17108 12.69221,-8.3536 6.12117,-0.18251 12.67646,2.14058 12.84033,8.93648 0.13063,5.4174 0.0372,-3.07427 0.0372,39.34824 0,21.09502 -0.24657,39.23334 -0.54773,40.30736 -0.82256,2.93268 -4.14065,6.49078 -7.45827,7.99778 -2.79507,1.26961 -6.45759,1.34044 -68.70322,1.32856 -57.09956,-0.011 -66.086501,-0.15821 -68.302491,-1.11913 z m 201.228899,0.13613 c -4.74046,-2.06482 -8.29477,-8.74018 -7.34614,-13.79683 0.61465,-3.27628 3.14022,-7.00239 6.09673,-8.99478 2.20914,-1.48875 3.40504,-1.59213 22.63008,-1.95608 15.88784,-0.30078 21.24139,-0.6507 24.6413,-1.61058 12.04775,-3.40133 22.77634,-12.40601 27.86592,-23.38832 3.44345,-7.43028 3.95341,-11.21945 3.95341,-29.37604 0,-9.35811 -0.18361,-17.01477 -0.40813,-17.01477 -0.22448,0 -1.69429,1.03362 -3.26628,2.2969 -9.46629,7.60731 -23.53537,-1.61182 -20.41404,-13.37685 0.71645,-2.7005 2.95204,-5.29587 15.20381,-17.65042 7.90012,-7.96644 15.25161,-14.95246 16.33664,-15.5245 2.32948,-1.22817 7.68035,-1.36015 10.58189,-0.26092 2.73095,1.03453 29.17962,27.32682 30.97182,30.78875 2.99061,5.77683 0.96161,13.52962 -4.41348,16.86389 -1.9285,1.19628 -3.72907,1.60447 -7.09123,1.60767 -3.90987,0.003 -4.95238,-0.31005 -7.87493,-2.37007 -1.85267,-1.30587 -3.49212,-2.37434 -3.64325,-2.37434 -0.15103,0 -0.41749,8.95856 -0.59197,19.90788 -0.35801,22.47023 -0.95249,26.00099 -6.29898,37.41005 -3.71893,7.93603 -6.50527,11.96486 -12.83466,18.55783 -10.41781,10.85168 -23.60055,17.97308 -37.98829,20.52143 -6.56418,1.16269 -43.31993,0.95557 -46.11022,-0.25982 z M 277.98451,244.0422 c -8.06396,-0.17633 -10.98821,-0.66979 -11.06728,-8.19996 -0.063,-6.00302 -0.19278,-133.26964 0,-137.050478 0.26545,-5.206014 1.96414,-7.328678 7.9758,-7.464855 0.92278,-0.0209 31.9014,-0.305752 68.89935,-0.1932 l 67.26896,0.204632 2.6833,2.046818 c 3.65254,2.786164 5.15875,5.903936 5.18912,10.741283 0.0307,4.86012 -1.99752,8.60336 -6.01439,11.10104 l -2.70279,1.68059 -58.81038,0.36529 -58.8104,0.36528 v 50.04367 50.04363 h 50.04364 50.04361 l 0.3653,-31.04896 c 0.31768,-27.00454 0.53226,-28.93085 0.64089,-31.98462 0.17803,-5.00511 7.24026,-10.02698 12.57123,-9.94291 5.33097,0.0841 12.73339,4.49365 12.72288,10.77185 -0.009,5.15661 0,39.86908 0,39.86908 v 39.86909 c 0,6.07771 -3.11194,8.75518 -8.76677,8.76677 l -65.75076,0.13472 c -36.1629,0.0741 -66.48131,0.30658 -66.48131,-0.11873 z M 117.54179,231.6946 c -1.45253,-0.51907 -3.5894,-1.62917 -4.74866,-2.4669 -3.66669,-2.64968 -26.357762,-26.01582 -27.487004,-28.30473 -2.808072,-5.69184 -2.044051,-10.73788 2.280547,-15.06251 4.840084,-4.84007 11.306231,-5.33528 16.886147,-1.29321 1.60182,1.16034 3.03777,2.10973 3.19105,2.10973 0.15325,0 0.44657,-8.46542 0.65175,-18.81202 0.33741,-17.013 0.54766,-19.47655 2.19834,-25.76077 5.52127,-21.01935 19.16336,-37.3372 38.79948,-46.409643 10.6013,-4.898105 15.19988,-5.622254 38.05105,-5.991971 21.97311,-0.355512 24.22516,-0.09924 28.15013,3.203421 3.14163,2.643485 4.39007,5.41797 4.39007,9.756133 0,4.07454 -1.12521,6.83029 -3.76603,9.22339 -3.81679,3.45875 -4.37171,3.54259 -26.18707,3.95678 -20.19132,0.38335 -20.98419,0.45396 -26.21327,2.33437 -12.99442,4.67286 -22.30561,14.14674 -26.87963,27.34922 -1.89848,5.47981 -1.99374,6.45891 -2.28055,23.43491 -0.32527,19.25298 -0.33087,19.2282 3.61379,15.90898 2.67269,-2.24893 7.3137,-3.55115 10.36127,-2.90728 8.12868,1.71734 12.91269,10.63028 9.69944,18.07074 -0.55839,1.29296 -7.54439,8.81244 -15.52449,16.70993 -11.7734,11.65155 -15.06024,14.50917 -17.43149,15.15512 -3.64354,0.99256 -4.46804,0.9709 -7.75487,-0.20369 z" />
	</g>
</svg>
