<?xml version="1.0" encoding="iso-8859-1"?>
<!-- Generator: Adobe Illustrator 19.0.0, SVG Export Plug-In . SVG Version: 6.00 Build 0)  -->
<svg version="1.1" id="Capa_1" xmlns="http://www.w3.org/2000/svg" xmlns:xlink="http://www.w3.org/1999/xlink" x="0px" y="0px" viewBox="0 0 512.001 512.001" style="enable-background:new 0 0 512.001 512.001;" xml:space="preserve">
	<g transform="translate(0,-161.5333165486653)">
		<g transform="matrix(0.26458333,0,0,0.26458333,0.1511873333332403,161.3821407619049)">
			<g>
				<path
					d="m 492,352 c 11.046,0 20,-8.954 20,-20 V 80 C 512,35.888 476.112,0 432,0 H 80 C 35.888,0 0,35.888 0,80 v 352 c 0,44.112 35.888,80 80,80 h 352 c 44.112,0 80,-35.888 80,-80 0,-11.046 -8.954,-20 -20,-20 -11.046,0 -20,8.954 -20,20 0,22.056 -17.944,40 -40,40 H 80 C 57.944,472 40,454.056 40,432 V 80 C 40,57.944 57.944,40 80,40 h 352 c 22.056,0 40,17.944 40,40 v 252 c 0,11.046 8.954,20 20,20 z" />
			</g>
		</g>
	</g>
	<g transform="matrix(0.26458333,0,0,0.26458333,-195.6403966666668,246.8048447619049)">
		<path
			d="m 1174.6532,-211.5957 c -8.611,-6.92 -21.2,-5.547 -28.118,3.063 L 953.1481499999996,30.740424 C 949.53615,34.60342400000001 944.6541499999998,36.84142400000001 939.3511499999998,37.054424 933.89215,37.27442400000001 928.7221499999999,35.324424 924.8281499999999,31.62342399999999 L 837.3053099999998,-49.758426 c -7.9749999999999,-7.643 -20.6339999999999,-7.374 -28.2779999999999,0.59899999999999 -7.643,7.974 -7.375,20.63400000000001 0.5989999999997,28.27800000000001 l 87.5818400000003,81.43885 c 11.26,10.703 25.8299999999998,16.51499999999998 41.2679999999999,16.51499999999998 0.8250000000002,0 1.6550000000001,-0.017 2.4839999999997,-0.051 C 957.3121499999997,76.36442399999997 972.3311499999997,69.28742399999997 983.24815,57.095424 c 0.2369999999997,-0.265 0.4669999999996,-0.537 0.691,-0.814 L 1177.7162,-183.4777 c 6.918,-8.611 5.547,-21.199 -3.063,-28.118 z" />
	</g>
</svg>
