<?xml version="1.0" encoding="iso-8859-1"?>
<!-- Generator: Adobe Illustrator 19.0.0, SVG Export Plug-In . SVG Version: 6.00 Build 0)  -->
<svg version="1.1" id="Capa_1" xmlns="http://www.w3.org/2000/svg" xmlns:xlink="http://www.w3.org/1999/xlink" x="0px" y="0px"
	 viewBox="0 0 512.001 512.001" style="enable-background:new 0 0 512.001 512.001;" xml:space="preserve">
<g>
	<g>
		<path
   d="M492,352c11.046,0,20-8.954,20-20V80c0-44.112-35.888-80-80-80H80C35.888,0,0,35.888,0,80v352c0,44.112,35.888,80,80,80    h352c44.112,0,80-35.888,80-80c0-11.046-8.954-20-20-20c-11.046,0-20,8.954-20,20c0,22.056-17.944,40-40,40H80    c-22.056,0-40-17.944-40-40V80c0-22.056,17.944-40,40-40h352c22.056,0,40,17.944,40,40v252C472,343.046,480.954,352,492,352z" />
	</g>
</g>
<g transform="translate(555.39011,-305.89798)">
   <g>
	<path
       d="m -140.62554,419.63782 c -8.611,-6.92 -21.2,-5.547 -28.118,3.063 l -189.37224,243.0614 c -3.612,3.863 -8.494,6.101 -13.797,6.314 -5.459,0.22 -10.629,-1.73 -14.523,-5.431 l -64.60658,-58.46558 c -7.975,-7.643 -20.634,-7.374 -28.278,0.599 -7.643,7.974 -7.375,20.634 0.599,28.278 l 64.66558,58.52258 c 11.26,10.703 25.83,16.515 41.268,16.515 0.825,0 1.655,-0.017 2.484,-0.051 16.352,-0.657 31.371,-7.734 42.288,-19.926 0.237,-0.265 0.467,-0.537 0.691,-0.814 l 189.76224,-243.5474 c 6.918,-8.611 5.547,-21.199 -3.063,-28.118 z" />
	</g>
</g>
</svg>
