<?xml version="1.0" encoding="iso-8859-1"?>
<!-- Generator: Adobe Illustrator 19.0.0, SVG Export Plug-In . SVG Version: 6.00 Build 0)  -->
<svg version="1.1" id="Capa_1" xmlns="http://www.w3.org/2000/svg" xmlns:xlink="http://www.w3.org/1999/xlink" x="0px" y="0px"
	 viewBox="0 0 512 512" style="enable-background:new 0 0 512 512;" xml:space="preserve">
	<g>
		<g>
			<path d="M437.02,74.98C388.667,26.629,324.38,0,256,0S123.333,26.629,74.98,74.98C26.629,123.333,0,187.62,0,256
					s26.629,132.667,74.98,181.02C123.333,485.371,187.62,512,256,512c46.813,0,92.617-12.758,132.462-36.893
					c9.447-5.724,12.467-18.022,6.744-27.469c-5.724-9.449-18.023-12.468-27.469-6.744C334.144,461.244,295.505,472,256,472
					c-119.103,0-216-96.897-216-216S136.897,40,256,40s216,96.897,216,216c0,42.589-12.665,84.044-36.626,119.884
					c-6.139,9.182-3.672,21.603,5.51,27.742c9.184,6.139,21.604,3.672,27.742-5.51C497.002,355.674,512,306.53,512,256
					C512,187.62,485.371,123.333,437.02,74.98z" />
		</g>
	</g>
	<g transform="rotate(-45,325.46802,233.22541)">
		<g>
			<path d="m 256,80 c -68.925,0 -125,56.075 -125,125 0,68.925 56.075,125 125,125 11.641,0 23.175,-1.603 34.282,-4.765 10.624,-3.023 16.784,-14.087 
			13.761,-24.711 -3.025,-10.623 -14.087,-16.785 -24.712,-13.76 C 271.787,288.911 263.937,290 256,290 c -46.869,0 -85,-38.131 -85,-85 0,-46.869 
			38.131,-85 85,-85 46.869,0 85,38.131 85,85 0,8.339 -1.2,16.57 -3.567,24.463 -3.173,10.58 2.832,21.729 13.412,24.902 10.581,3.171 21.728,-2.831 
			24.902,-13.412 C 379.232,229.33 381,217.234 381,205 381,136.075 324.925,80 256,80 Z" />
		</g>
	</g>
</svg>
