<?xml version="1.0" encoding="iso-8859-1"?>
<!-- Generator: Adobe Illustrator 19.0.0, SVG Export Plug-In . SVG Version: 6.00 Build 0)  -->
<svg version="1.1" id="Capa_1" xmlns="http://www.w3.org/2000/svg" xmlns:xlink="http://www.w3.org/1999/xlink" x="0px" y="0px"
	 viewBox="0 0 255 512" style="enable-background:new 0 0 255 512;" xml:space="preserve">

	<g transform="translate(-265.81395,-130.90233)">
		<path d="m 492,412 c -11.046,0 -20,8.954 -20,20 0,22.056 -17.944,40 -40,40 h -76 c -22.056,0 -40,-17.944 -40,-40 v -76 c 0,-22.056 17.944,-40 40,-40 h 76 c 15.905,0 30.301,9.419 36.675,23.996 4.425,10.121 16.218,14.736 26.338,10.312 10.121,-4.426 14.737,-16.218 10.312,-26.338 C 492.582,294.829 463.8,276 432,276 h -76 c -44.112,0 -80,35.888 -80,80 v 76 c 0,44.112 35.888,80 80,80 h 76 c 44.112,0 80,-35.888 80,-80 0,-11.046 -8.954,-20 -20,-20 z" />
	</g>
</svg>
