<?xml version="1.0" encoding="UTF-8" standalone="no"?>
<svg
   xmlns:dc="http://purl.org/dc/elements/1.1/"
   xmlns:cc="http://creativecommons.org/ns#"
   xmlns:rdf="http://www.w3.org/1999/02/22-rdf-syntax-ns#"
   xmlns:svg="http://www.w3.org/2000/svg"
   xmlns="http://www.w3.org/2000/svg"
   xml:space="preserve"
   style="enable-background:new 0 0 255 512;"
   viewBox="0 0 255 512"
   y="0px"
   x="0px"
   id="Capa_1"
   version="1.1"><metadata
   id="metadata824"><rdf:RDF><cc:Work
       rdf:about=""><dc:format>image/svg+xml</dc:format><dc:type
         rdf:resource="http://purl.org/dc/dcmitype/StillImage" /><dc:title></dc:title></cc:Work></rdf:RDF></metadata><defs
   id="defs822" />

	
<g
   id="g840"
   transform="translate(-265.81395,-130.90233)"><path
     id="path838"
     d="m 492,412 c -11.046,0 -20,8.954 -20,20 0,22.056 -17.944,40 -40,40 h -76 c -22.056,0 -40,-17.944 -40,-40 v -76 c 0,-22.056 17.944,-40 40,-40 h 76 c 15.905,0 30.301,9.419 36.675,23.996 4.425,10.121 16.218,14.736 26.338,10.312 10.121,-4.426 14.737,-16.218 10.312,-26.338 C 492.582,294.829 463.8,276 432,276 h -76 c -44.112,0 -80,35.888 -80,80 v 76 c 0,44.112 35.888,80 80,80 h 76 c 44.112,0 80,-35.888 80,-80 0,-11.046 -8.954,-20 -20,-20 z" /></g></svg>