<?xml version="1.0" encoding="iso-8859-1"?>
<!-- Generator: Adobe Illustrator 19.0.0, SVG Export Plug-In . SVG Version: 6.00 Build 0)  -->
<svg version="1.1" id="Capa_1" xmlns="http://www.w3.org/2000/svg" xmlns:xlink="http://www.w3.org/1999/xlink" x="0px" y="0px"
	 viewBox="0 0 255 512" style="enable-background:new 0 0 255 512;" xml:space="preserve">

	<g transform="translate(9.40465,145.1907)">
		<path d="M 156,0 H 80 C 35.888,0 0,35.888 0,80 v 76 c 0,44.112 35.888,80 80,80 h 76 c 44.112,0 80,-35.888 80,-80 V 80 C 236,35.888 200.112,0 156,0 Z m 40,156 c 0,22.056 -17.944,40 -40,40 H 80 C 57.944,196 40,178.056 40,156 V 80 C 40,57.944 57.944,40 80,40 h 76 c 22.056,0 40,17.944 40,40 z" />
	</g>
</svg>
