<?xml version="1.0" encoding="iso-8859-1"?>
<!-- Generator: Adobe Illustrator 19.0.0, SVG Export Plug-In . SVG Version: 6.00 Build 0)  -->
<svg version="1.1" id="Capa_1" xmlns="http://www.w3.org/2000/svg" xmlns:xlink="http://www.w3.org/1999/xlink" x="0px" y="0px"
	 viewBox="0 0 512 512" style="enable-background:new 0 0 512 512;" xml:space="preserve">

	<g>
		<path d="M407.672,280.596c-21.691-15.587-45.306-27.584-70.182-35.778C370.565,219.986,392,180.449,392,136
			C392,61.01,330.991,0,256,0S120,61.01,120,136c0,44.504,21.488,84.084,54.633,108.911c-30.368,9.998-58.863,25.555-83.803,46.069
			c-45.732,37.617-77.529,90.086-89.532,147.743c-3.762,18.066,0.745,36.622,12.363,50.908C25.222,503.847,42.365,512,60.693,512
			H267c11.046,0,20-8.954,20-20c0-11.046-8.954-20-20-20H60.693c-8.538,0-13.689-4.766-15.999-7.606
			c-3.989-4.905-5.533-11.29-4.236-17.519c20.756-99.695,108.691-172.521,210.24-174.977c1.759,0.068,3.526,0.102,5.302,0.102
			c1.788,0,3.569-0.035,5.341-0.104c44.466,1.052,86.883,15.236,122.988,41.182c8.969,6.446,21.467,4.399,27.913-4.569
			C418.688,299.539,416.642,287.042,407.672,280.596z M260.869,231.878c-1.621-0.03-3.244-0.045-4.869-0.045
			c-1.614,0-3.228,0.016-4.84,0.046C200.465,229.35,160,187.312,160,136c0-52.935,43.065-96,96-96s96,43.065,96,96
			C352,187.302,311.55,229.334,260.869,231.878z" />
	</g>
	<g>
		<path d="m 403.02688,330.84359 c -12.215,-7.09 -26.812,-7.113 -39.05,-0.066 -12.275,7.068 -19.604,19.759 -19.604,33.945 v 99.639 c 0,14.187 7.329,26.877 19.604,33.946 6.099,3.512 
			12.785,5.268 19.469,5.268 6.728,0 13.455,-1.779 19.581,-5.333 l 85.854,-49.819 c 12.205,-7.083 19.492,-19.749 19.492,-33.881 0,-14.132 -7.287,-26.799 -19.492,-33.882 z m -18.654,131.976 v -96.555 l 83.199,48.278 z" />
	</g>
</svg>