<?xml version="1.0" encoding="iso-8859-1"?>
<!-- Generator: Adobe Illustrator 19.0.0, SVG Export Plug-In . SVG Version: 6.00 Build 0)  -->
<svg version="1.1" id="Capa_1" xmlns="http://www.w3.org/2000/svg" xmlns:xlink="http://www.w3.org/1999/xlink" x="0px" y="0px"
	 viewBox="0 0 512 512" style="enable-background:new 0 0 512 512;" xml:space="preserve">

<g>
	<g>
		<path d="M124.5,0h-35c-44.112,0-80,35.888-80,80v352c0,44.112,35.888,80,80,80h35c44.112,0,80-35.888,80-80V80    C204.5,35.888,168.612,0,124.5,0z M164.5,432c0,22.056-17.944,40-40,40h-35c-22.056,0-40-17.944-40-40V80    c0-22.056,17.944-40,40-40h35c22.056,0,40,17.944,40,40V432z" />
	</g>
</g>
<g transform="matrix(0,1,0.98372093,0,8.9976745,10.053488)">
	<g>
		<path d="m 482.5,352 c 11.046,0 20,-8.954 20,-20 V 117.95211 l -194,172.03256 V 318.65676 432 c 0,44.112 35.888,80 80,80 h 34 c 44.112,0 80,-35.888 80,-80 0,-11.046 -8.954,-20 -20,-20 -11.046,0 -20,8.954 -20,20 0,22.056 -17.944,40 -40,40 h -34 c -22.056,0 -40,-17.944 -40,-40 V 288.2729 l 114,-115.97219 V 332 c 0,11.046 8.954,20 20,20 z" />
	</g>
</g>
<g transform="rotate(45,117.70449,418.90515)">
	<g>
		<path d="m 124.5,0 h -35 C 45.388,0 9.5,35.888 9.5,80 l 0,154.86512 195,197.13488 0,-33.71163 V 80 c 0,-44.112 -35.888,-80 -80,-80 z M 49.5,237.54419 49.5,80 c 0,-22.056 17.944,-40 40,-40 h 35 c 22.056,0 40,17.944 40,40 l 0,276.31628 z" />
	</g>
</g>

<g transform="rotate(45,117.70449,418.90515)">
	<g>
		<path d="m 124.5,0 h -35 C 45.388,0 9.5,35.888 9.5,80 l 0,154.86512 195,197.13488 0,-33.71163 V 80 c 0,-44.112 -35.888,-80 -80,-80 z M 49.5,237.54419 49.5,80 c 0,-22.056 17.944,-40 40,-40 h 35 c 22.056,0 40,17.944 40,40 l 0,276.31628 z" />
	</g>
</g>
<g>
	<path d="m 145.50797,410.95144 a 38.729717,38.729717 0 0 1 -38.72971,38.72972 38.729717,38.729717 0 0 1 -38.729717,-38.72972 38.729717,38.729717 0 0 1 38.729717,-38.72971 38.729717,38.729717 0 0 1 38.72971,38.72971 z" />
</g>
</svg>



