<?xml version="1.0" encoding="UTF-8" standalone="no"?>
<svg
   xmlns:dc="http://purl.org/dc/elements/1.1/"
   xmlns:cc="http://creativecommons.org/ns#"
   xmlns:rdf="http://www.w3.org/1999/02/22-rdf-syntax-ns#"
   xmlns:svg="http://www.w3.org/2000/svg"
   xmlns="http://www.w3.org/2000/svg"
   id="svg854"
   version="1.1"
   viewBox="0 0 910.56641 521.96503"
   height="521.96503mm"
   width="910.56641mm">
  <defs
     id="defs848" />
  <metadata
     id="metadata851">
    <rdf:RDF>
      <cc:Work
         rdf:about="">
        <dc:format>image/svg+xml</dc:format>
        <dc:type
           rdf:resource="http://purl.org/dc/dcmitype/StillImage" />
        <dc:title></dc:title>
      </cc:Work>
    </rdf:RDF>
  </metadata>
  <g
     transform="translate(310.14036,272.18461)"
     id="layer1">
    <path
       style="fill:#000000;fill-opacity:1;stroke-width:0.26458338"
       d="m 520.06602,248.94627 c -20.7759,-7.621 -29.20219,-11.59142 -40.34901,-19.01206 -8.2133,-5.46785 -14.1074,-10.41331 -22.01518,-18.47204 -5.76131,-5.87121 -9.40332,-10.00374 -15.22932,-17.28028 -15.91471,-19.87701 -33.68389,-47.49496 -45.5899,-70.85857 -6.79831,-13.34039 -10.5142,-22.40587 -14.0906,-34.375241 l -1.2587,-4.21274 -1.84039,-0.626667 c -7.9943,-2.72198 -20.04901,-6.321897 -26.90021,-8.033167 -16.35429,-4.084957 -28.46409,-5.499707 -44.39341,-5.186257 -26.52588,0.52194 -53.7069,5.394377 -98.425,17.643441 -9.82178,2.690387 -31.81858,8.974214 -31.98019,9.135814 -0.059,0.0592 0.17659,0.2195 0.5243,0.35611 10.736,4.219467 18.52031,6.568117 25.9279,7.823007 9.32349,1.57946 19.00719,1.62875 34.94561,0.17796 0,0 4.95128,-0.46323 5.84129,0.28236 0.8899,0.74557 0.88601,1.81232 0.5249,2.6089 -0.3611,0.79658 -8.34829,3.92189 -11.64439,4.90048 -54.72261,16.24788 -75.2697,19.88447 -95.4446,16.89246 -5.1662,-0.76616 -12.51032,-2.70315 -17.31441,-4.56661 -0.79169,-0.30707 -1.47849,-0.51929 -1.5262,-0.47162 -0.17269,0.17278 13.6084,8.81362 20.17099,12.64725 16.71542,9.7646 29.88421,16.31748 43.25191,21.52242 11.2576,4.38333 24.64779,7.70615 40.61349,10.07846 3.6381,0.54057 5.46042,1.18512 5.61581,1.27166 3.60611,2.00734 4.09109,2.98141 0.6645,4.4835 -3.42659,1.50209 -16.6747,2.785 -28.76979,4.27331 -41.41102,5.09561 -67.1032,2.37763 -102.526116,-10.84633 -18.65029,-6.96245 -42.94968,-19.23494 -58.07599,-29.33147 -4.59711,-3.06842 -7.40931,-5.11744 -12.03949,-8.77213 l -4.1021,-3.23773 -6.2167,1.1606 c -57.50222,10.73507 -90.84081,14.13224 -120.271314,12.25552 -21.9335,-1.39866 -41.7261,-6.01271 -70.1028,-16.3423 -17.653,-6.42602 -21.8446,-8.20428 -31.6103,-13.41054 -18.4046,-9.81176 -34.3009,-22.260841 -55.4274,-43.407599 -14.1006,-14.114194 -23.3883,-25.118978 -34.7883,-41.219689 -1.9398,-2.739567 -3.5786,-4.633637 -4.1616,-5.396937 -0.6062,-0.994327 -0.9772,-1.506927 -1.3959,-2.133197 0,0 -0.5145,-1.76472 -0.043,-2.25073 0.3358,-0.35748 0.985,-0.58312 2.4803,0.21722 1.4953,0.80034 4.0695,1.56808 9.2899,4.992047 8.1154,5.322727 11.8131,7.659687 11.9253,7.536837 0.051,-0.0555 0.3465,-3.79179 0.6576,-8.302937 0.8064,-11.6935407 -0.144,-10.895294 2.3331,-12.5365607 0,0 0.5315,-0.0844 1.5334,0.12282 1.0019,0.2072 2.2573,2.7589667 2.2573,2.7589667 5.7955,8.888384 7.6288,12.547044 11.5211,22.975768 1.1831,3.169707 1.7946,6.086397 1.9135,6.298747 0.1616,0.28877 0.7542,-0.30146 2.3501,-2.34076 5.5697,-7.116927 7.7586,-11.434494 10.4126,-20.538428 0.7926,-2.71905 0.9235,-2.981167 1.4204,-2.84621 0.301,0.0818 1.4037,0.3579 2.4505,0.61362 l 1.9032,0.46496 1.859,3.83646 c 1.0224,2.110047 2.2699,4.977257 2.7722,6.371554 1.6709,4.637877 3.1304,11.539424 3.9681,18.763841 l 0.3529,3.042707 2.1578,-4.432507 c 2.1817,-4.481667 4.5753,-10.052894 6.6394,-15.453381 l 1.1285,-2.952557 c 0,0 1.0939,-2.56241 1.7876,-2.82472 0.6938,-0.26228 1.1904,-0.5814 2.6737,1.03465 0.835,0.90975 1.7584,2.782777 2.9882,6.121927 4.5041,12.230301 6.1543,18.780648 6.9038,27.403945 l 0.1754,2.018177 2.2956,0.44448 c 1.2626,0.24445 2.4894,0.50054 2.7263,0.56906 0.3105,0.0898 0.9155,-0.60364 2.1686,-2.48597 2.0977,-3.150967 3.3775,-5.659034 4.1148,-8.063594 0.6606,-2.15416 2.64,-12.104284 2.8561,-14.356541 l 0.1535,-1.59999 c 0,0 0.3871,-2.03248 0.9774,-2.3694 0.5903,-0.336917 1.4624,-0.539057 2.3825,0.15819 0.903,0.6843 2.4072,2.35522 4.1016,5.411157 6.2886,11.341934 8.0359,15.634451 9.6663,23.746338 0.3599,1.79057 0.4282,1.80991 3.4442,0.97412 3.8261,-1.06024 7.7857,-3.75187 9.0671,-6.163517 0.8334,-1.5684 0.7558,-4.328137 -0.2055,-7.312157 -2.7916,-8.665494 -10.9745,-22.551505 -18.6291,-31.612722 -2.7336,-3.235877 -7.1609,-7.8101737 -7.5593,-7.8101737 -0.3553,0 -3.5217,2.2813667 -4.7218,3.4019367 -2.1857,2.04089 -8.1116,17.533451 -8.6222,17.914391 0,0 -0.7352,1.352287 -2.8555,0.59222 -1.2791,-0.45852 -1.7512,-1.22505 -1.853,-1.38954 -1.6749,-2.7052 -2.4662,-6.704087 -2.8318,-9.166194 -1.326,-8.929657 -1.1012,-20.64863067 0.5308,-27.6860633 l 0.4133,-1.78199 -0.7477,-0.60954 c -1.1555,-0.9420307 -6.9937,-4.8847667 -7.081,-4.7820567 -0.043,0.0502 -1.1013,2.05838 -2.3525,4.462676 -3.1051,5.9667674 -4.0096,9.68212333 -4.9729,20.427237 -0.1791,1.99764 -0.7616,3.25777 -1.7883,4.07742 -1.0267,0.81965 -1.983,0.44373 -2.7295,-0.26411 -0.7464,-0.70786 -1.6089,-1.61128 -2.4544,-3.21201 -0.8456,-1.6007267 -2.513,-4.4582267 -3.7054,-6.349993 -4.5596,-7.2337066 -6.171,-10.2752773 -10.7232,-20.240611 -2.3425,-5.127837 -3.204,-6.764543 -3.5904,-6.820503 -0.3998,-0.0579 -0.8858,0.59229 -2.2742,3.042707 -4.7874,8.449433 -6.1322,12.3799937 -7.0857,20.7111171 -0.1583,1.38244 -0.3906,2.75674 -0.9319,3.5491362 -1.2079,1.43455 -2.5207,1.4518 -4.5623,0.12531 -0.3129,-0.2235163 -1.0518,-1.1110362 -1.4848,-1.8879362 -2.5949,-4.6555967 -6.168,-10.6709234 -10.3454,-19.8057071 l -1.5251,-3.33481 -4.1412,-0.16076 c -9.8711,-0.383221 -16.8071,-3.183097 -26.3384,-10.632094 -2.0294,-1.586067 -2.3496,-2.205407 -2.9278,-2.783677 -1.5435,-1.83807 -2.5471,-2.70079 -2.4625,-3.592961 0.085,-0.892166 8.5021,-6.723053 8.5021,-6.723053 95.4031,-75.440286 132.4703,-102.558996 167.5167,-122.556656 26.8712,-15.33286 50.387404,-24.19217 89.032294,-33.54137 14.19162,-3.43333 12.5299,-3.14855 17.86631,-3.06192 3.2072,0.0521 6.43541,0.30016 9.91489,0.76196 2.83771,0.37663 6.40961,0.7638 7.9374998,0.86041 9.53342005,0.60271 19.6389102,-3.05512 34.4351002,-12.46422 33.47172,-21.28508 57.5278,-32.9569 86.479506,-41.95921 25.06819,-7.79474 53.53791,-14.07976 78.44901,-15.57351 21.69409,-1.30086 45.43449,-0.39551 58.20828,1.19708 12.77382,1.59258 16.03211,-0.22293 18.5257,4.28902 0.12341,1.12345 -2.48909,2.23053 -2.5464,2.27456 -0.057,0.044 -3.55708,1.60649 -7.77719,3.47214 -44.4737,19.66118 -69.1429,32.23797 -89.94989,45.85805 -6.78881,4.44387 -14.44101,10.18452 -14.0702,10.55533 0.072,0.0721 1.7771,-0.29086 3.7891,-0.80651 31.89129,-8.17348 58.27839,-12.33286 103.5295,-16.31923 3.4149,-0.30083 6.45599,-0.48494 6.75809,-0.40912 2.38641,-0.13788 5.18851,2.58254 3.54269,3.90229 -1.64568,1.31977 -1.83649,1.0717 -6.64228,2.5944 -23.76591,7.53007 -35.48901,12.39167 -50.08412,20.76992 -7.15949,4.10992 -21.20929,13.01864 -20.94629,13.28167 0.062,0.0615 1.5254,-0.12535 3.2531,-0.4153 10.569,-1.77378 23.31421,-2.51085 43.62241,-2.52269 21.3586,-0.0125 40.26099,2.96377 45.6401,3.31005 5.37919,0.34626 5.8066,0.82011 7.03789,1.60286 0.70831,0.54537 0.93289,2.29695 0.66881,2.65879 -0.26421,0.36184 -2.1481,2.82569 -4.82441,3.41075 -22.57661,4.93528 -34.18149,8.84995 -52.56649,17.73221 -2.9886,1.44385 -5.3843,2.67461 -5.32392,2.73503 0.06,0.0604 2.43102,-0.11234 5.26812,-0.38389 9.41538,-0.90124 17.229,-1.34402 26.45719,-1.49926 9.7264,-0.16362 15.38759,0.072 24.2093,1.00778 2.7649,0.29328 5.69471,0.37853 5.98871,0.38502 0.2939,0.007 1.55218,0.0371 1.90389,0.62697 0.35179,0.58991 1.31691,2.92403 0.46839,3.6664 -0.63688,0.55734 -0.99428,0.49381 -1.44179,0.66326 -0.4586,0.19024 -3.98889,1.39107 -7.84519,2.66853 -7.6473,2.53328 -15.13811,5.43144 -21.31031,8.24491 -4.5398,2.06936 -13.14101,6.40983 -15.85571,8.00135 l -1.84409,1.08112 0.76171,0.28961 c 7.46918,2.83977 28.8059,11.62701 37.58689,15.47966 17.48409,7.67113 36.05501,17.284387 53.5764,27.734081 21.41541,12.77192 37.0127,23.629567 54.3736,37.850875 2.47391,2.02649 4.6291,3.786236 4.7893,3.910536 0.185,0.14348 2.21411,-1.240286 5.5563,-3.789226 34.38049,-26.220199 61.0307,-43.109752 94.2022,-59.700586 27.59149,-13.79999 47.7184,-21.11729 66.6377,-24.22666 9.14712,-1.50332 15.4079,-1.99026 28.24429,-2.19669 0,0 6.69931,0.23476 8.30652,1.34686 1.1299,1.68264 0.69551,5.38541 -2.97072,8.33242 -3.6662,2.947 -75.17778,72.239961 -86.62408,85.341029 -10.87019,12.441785 -19.08921,24.496649 -31.39792,46.0517053 -5.95429,10.4271137 -10.67578,19.0115377 -10.67578,19.4099777 0,0.18629 0.70038,1.61025 1.55649,3.16436 5.0495,9.166914 8.0563,19.689068 10.06931,35.237089 0.97689,7.545804 1.87819,19.030428 2.92758,37.306229 3.04671,53.05774 6.4434,75.29946 14.6599,95.99326 5.60491,14.11648 13.3622,25.71539 26.64561,42.80874 1.4701,1.89177 2.40231,2.86329 2.42282,4.24053 0.0209,1.37724 -1.34721,2.92301 -3.38101,3.12605 -0.77531,-0.0493 -1.69341,-0.29363 -3.04242,-0.83418 z M -143.42739,-60.430562 c 8.3393,-1.245184 13.7798,-3.126863 19.233,-6.651854 7.9361,-5.13009 17.6107,-16.055227 27.847304,-31.447087 8.9354,-13.435227 14.5064,-24.434757 17.8898,-35.321897 0.5879,-1.89177 1.3189,-4.13821 1.6244,-4.99207 0.3224,-0.90107 0.5219,-2.0113 0.4756,-2.64585 l -0.08,-1.09333 -1.9844,0.0252 c -3.1924,0.0406 -12.6267,1.69307 -18.2563,3.1977 -12.658604,3.3833 -24.421804,10.15226 -39.158304,22.53319 -4.2067,3.53428 -12.864,12.18876 -15.127,15.12201 -6.0618,7.857314 -9.3228,15.036831 -11.3565,25.003078 -0.7464,3.657842 -0.8664,4.790783 -0.8824,8.334324 -0.02,4.389493 0.1386,5.06018 1.5057,6.375495 0.8858,0.852304 3.1126,1.806668 4.8623,2.083958 2.3148,0.366867 9.2625,0.0959 13.4067,-0.522917 z"
       id="path828" />
  </g>
</svg>
