<?xml version="1.0" encoding="iso-8859-1"?>
<!-- Generator: Adobe Illustrator 19.0.0, SVG Export Plug-In . SVG Version: 6.00 Build 0)  -->
<svg version="1.1" id="Capa_1" xmlns="http://www.w3.org/2000/svg" xmlns:xlink="http://www.w3.org/1999/xlink" x="0px" y="0px"
	 viewBox="0 0 512.001 512.001" style="enable-background:new 0 0 512.001 512.001;" xml:space="preserve">
	<g>
		<path d="M492,352c11.046,0,20-8.954,20-20V80c0-44.112-35.888-80-80-80H80C35.888,0,0,35.888,0,80v352c0,44.112,35.888,80,80,80
                 h352c44.112,0,80-35.888,80-80c0-11.046-8.954-20-20-20c-11.046,0-20,8.954-20,20c0,22.056-17.944,40-40,40H80
                 c-22.056,0-40-17.944-40-40V80c0-22.056,17.944-40,40-40h352c22.056,0,40,17.944,40,40v252C472,343.046,480.954,352,492,352z" />
	</g>
	<g transform="matrix(0.71627853,0,0,0.71627853,75.014525,67.870392)">
	   <path d="M 481.996,30.006 C 462.647,10.656 436.922,0 409.559,0 382.196,0 356.47,10.656 337.121,30.005 L 50.826,316.301 c -2.436,2.436 -4.201,5.46 -5.125,8.779 
				L 0.733,486.637 c -1.939,6.968 0.034,14.441 5.163,19.542 3.8,3.78 8.892,5.821 14.106,5.821 1.822,0 3.66,-0.25 5.463,-0.762 l 161.557,-45.891 
				c 6.816,-1.936 12.1,-7.335 13.888,-14.192 1.788,-6.857 -0.186,-14.148 -5.189,-19.167 L 93.869,329.827 331.184,92.511 419.442,180.769 237.768,361.948 
				c -7.821,7.8 -7.838,20.463 -0.038,28.284 7.799,7.822 20.464,7.838 28.284,0.039 L 481.994,174.879 
				C 501.344,155.53 512,129.805 512,102.442 512,75.079 501.344,49.354 481.996,30.006 Z M 143.395,436.158 48.827,463.02 75.312,367.868 
				Z m 310.335,-289.583 -5.965,5.949 -88.296,-88.297 5.938,-5.938 C 377.2,46.495 392.88,40 409.559,40 c 16.679,0 32.358,6.495 44.152,18.29 11.794,11.793 
				18.289,27.473 18.289,44.152 0,16.679 -6.495,32.359 -18.27,44.133 z" />
	</g>
</svg>	
