<!-- Generator: Adobe Illustrator 19.0.0, SVG Export Plug-In . SVG Version: 6.00 Build 0)  -->
<svg version="1.1" id="Capa_1" xmlns="http://www.w3.org/2000/svg" xmlns:xlink="http://www.w3.org/1999/xlink" x="0px" y="0px"
	 viewBox="0 0 512.001 512.001" style="enable-background:new 0 0 512.001 512.001;" xml:space="preserve">


	<g>
		<path d="M492,352c11.046,0,20-8.954,20-20V80c0-44.112-35.888-80-80-80H80C35.888,0,0,35.888,0,80v352c0,44.112,35.888,80,80,80
                 h352c44.112,0,80-35.888,80-80c0-11.046-8.954-20-20-20c-11.046,0-20,8.954-20,20c0,22.056-17.944,40-40,40H80
                 c-22.056,0-40-17.944-40-40V80c0-22.056,17.944-40,40-40h352c22.056,0,40,17.944,40,40v252C472,343.046,480.954,352,492,352z" />
	</g>
	<g>
		<path d="M 413.15394,235.58174 H 275.38659 V 98.763288 c 0,-11.046 -8.954,-20 -20,-20 -11.046,0 -20,8.954 -20,20 V 235.58174 H 98.609784 c -11.046,
		         0 -20,8.954 -20,20 0,11.046 8.954,20 20,20 H 235.38659 l -0.0442,137.73127 c -0.004,11.046 8.954,20 20,20 11.046,0 19.99645,-8.954 20,-20 l 
				 0.0442,-137.73127 h 137.76735 c 11.046,0 20,-8.954 20,-20 0,-11.046 -8.954,-20 -20,-20 z"/>
	</g>
</svg>