<?xml version="1.0" encoding="iso-8859-1"?>
<!-- Generator: Adobe Illustrator 19.0.0, SVG Export Plug-In . SVG Version: 6.00 Build 0)  -->
<svg version="1.1" id="Capa_1" xmlns="http://www.w3.org/2000/svg" xmlns:xlink="http://www.w3.org/1999/xlink" x="0px" y="0px"
	 viewBox="0 0 910.56641 621.96503"
	 style="enable-background:new 0 0 910.56641 621.96503;" xml:space="preserve">
	
	<g transform="translate(310.14036,100.18461)">
		<g>
			<path d="m 520.06602,434.6841 c -20.7759,-7.621 -29.20219,-11.59142 -40.34901,-19.01206 -8.2133,-5.46785 -14.1074,-10.41331 -22.01518,-18.47204 -5.76131,-5.87121 -9.40332,-10.00374 
			-15.22932,-17.28028 -15.91471,-19.87701 -33.68389,-47.49496 -45.5899,-70.85857 -6.79831,-13.34039 -10.5142,-22.40587 -14.0906,-34.37525 l -1.2587,-4.21274 -1.84039,-0.62667 c -7.9943,-2.72198 
			-20.04901,-6.3219 -26.90021,-8.03317 -16.35429,-4.08496 -28.46409,-5.49971 -44.39341,-5.18626 -26.52588,0.52194 -53.7069,5.39438 -98.425,17.64345 -9.82178,2.69039 -31.81858,8.97422 -31.98019,9.13582 
			-0.059,0.0592 0.17659,0.2195 0.5243,0.35611 10.736,4.21947 18.52031,6.56812 25.9279,7.82301 9.32349,1.57946 19.00719,1.62875 34.94561,0.17796 0,0 4.95128,-0.46323 5.84129,0.28236 0.8899,0.74557 
			0.88601,1.81232 0.5249,2.6089 -0.3611,0.79658 -8.34829,3.92189 -11.64439,4.90048 -54.72261,16.24788 -75.2697,19.88447 -95.4446,16.89246 -5.1662,-0.76616 -12.51032,-2.70315 -17.31441,-4.56661 -0.79169,
			-0.30707 -1.47849,-0.51929 -1.5262,-0.47162 -0.17269,0.17278 13.6084,8.81362 20.17099,12.64725 16.71542,9.7646 29.88421,16.31748 43.25191,21.52242 11.2576,4.38333 24.64779,7.70615 40.61349,10.07846 
			3.6381,0.54057 5.46042,1.18512 5.61581,1.27166 3.60611,2.00734 4.09109,2.98141 0.6645,4.4835 -3.42659,1.50209 -16.6747,2.785 -28.76979,4.27331 -41.41102,5.09561 -67.1032,2.37763 -102.526116,-10.84633 
			-18.65029,-6.96245 -42.94968,-19.23494 -58.07599,-29.33147 -4.59711,-3.06842 -7.40931,-5.11744 -12.03949,-8.77213 l -4.1021,-3.23773 -6.2167,1.1606 c -57.50222,10.73507 -90.84081,14.13224 
			-120.271314,12.25552 -21.9335,-1.39866 -41.7261,-6.01271 -70.1028,-16.3423 -17.653,-6.42602 -21.8446,-8.20428 -31.6103,-13.41054 -18.4046,-9.81176 -34.3009,-22.26085 -55.4274,-43.40762 
			-14.1006,-14.1142 -23.3883,-25.11899 -34.7883,-41.21971 -1.9398,-2.73957 -3.5786,-4.63364 -4.1616,-5.39694 -0.6062,-0.99433 -0.9772,-1.50693 -1.3959,-2.1332 0,0 -0.5145,-1.76472 -0.043,-2.25073 
			0.3358,-0.35748 0.985,-0.58312 2.4803,0.21722 1.4953,0.80034 4.0695,1.56808 9.2899,4.99205 8.1154,5.32273 11.8131,7.65969 11.9253,7.53684 0.051,-0.0555 0.3465,-3.79179 0.6576,-8.30294 0.8064,-11.69355 
			-0.144,-10.8953 2.3331,-12.53657 0,0 0.5315,-0.0844 1.5334,0.12282 1.0019,0.2072 2.2573,2.75897 2.2573,2.75897 5.7955,8.88839 7.6288,12.54705 11.5211,22.97578 1.1831,3.16971 1.7946,6.0864 1.9135,6.29875 
			0.1616,0.28877 0.7542,-0.30146 2.3501,-2.34076 5.5697,-7.11693 7.7586,-11.4345 10.4126,-20.53844 0.7926,-2.71905 0.9235,-2.98117 1.4204,-2.84621 0.301,0.0818 1.4037,0.3579 2.4505,0.61362 l 1.9032,0.46496 
			1.859,3.83646 c 1.0224,2.11005 2.2699,4.97726 2.7722,6.37156 1.6709,4.63788 3.1304,11.53943 3.9681,18.76385 l 0.3529,3.04271 2.1578,-4.43251 c 2.1817,-4.48167 4.5753,-10.0529 6.6394,-15.45339 l 1.1285,
			-2.95256 c 0,0 1.0939,-2.56241 1.7876,-2.82472 0.6938,-0.26228 1.1904,-0.5814 2.6737,1.03465 0.835,0.90975 1.7584,2.78278 2.9882,6.12193 4.5041,12.23031 6.1543,18.78066 6.9038,27.40396 l 0.1754,2.01818 
			2.2956,0.44448 c 1.2626,0.24445 2.4894,0.50054 2.7263,0.56906 0.3105,0.0898 0.9155,-0.60364 2.1686,-2.48597 2.0977,-3.15097 3.3775,-5.65904 4.1148,-8.0636 0.6606,-2.15416 2.64,-12.10429 2.8561,-14.35655 
			l 0.1535,-1.59999 c 0,0 0.3871,-2.03248 0.9774,-2.3694 0.5903,-0.33692 1.4624,-0.53906 2.3825,0.15819 0.903,0.6843 2.4072,2.35522 4.1016,5.41116 6.2886,11.34194 8.0359,15.63446 9.6663,23.74635 0.3599,
			1.79057 0.4282,1.80991 3.4442,0.97412 3.8261,-1.06024 7.7857,-3.75187 9.0671,-6.16352 0.8334,-1.5684 0.7558,-4.32814 -0.2055,-7.31216 -2.7916,-8.6655 -10.9745,-22.55152 -18.6291,-31.61274 -2.7336,
			-3.23588 -7.1609,-7.81018 -7.5593,-7.81018 -0.3553,0 -3.5217,2.28137 -4.7218,3.40194 -2.1857,2.04089 -8.1116,17.53346 -8.6222,17.9144 0,0 -0.7352,1.35229 -2.8555,0.59222 -1.2791,-0.45852 -1.7512,-1.22505 
			-1.853,-1.38954 -1.6749,-2.7052 -2.4662,-6.70409 -2.8318,-9.1662 -1.326,-8.92966 -1.1012,-20.64864 0.5308,-27.68608 l 0.4133,-1.78199 -0.7477,-0.60954 c -1.1555,-0.94203 -6.9937,-4.88477 -7.081,-4.78206 
			-0.043,0.0502 -1.1013,2.05838 -2.3525,4.46268 -3.1051,5.96677 -4.0096,9.68213 -4.9729,20.42725 -0.1791,1.99764 -0.7616,3.25777 -1.7883,4.07742 -1.0267,0.81965 -1.983,0.44373 -2.7295,-0.26411 -0.7464,
			-0.70786 -1.6089,-1.61128 -2.4544,-3.21201 -0.8456,-1.60073 -2.513,-4.45823 -3.7054,-6.35 -4.5596,-7.23371 -6.171,-10.27528 -10.7232,-20.24062 -2.3425,-5.12784 -3.204,-6.76455 -3.5904,-6.82051 -0.3998,
			-0.0579 -0.8858,0.59229 -2.2742,3.04271 -4.7874,8.44944 -6.1322,12.38 -7.0857,20.71113 -0.1583,1.38244 -0.3906,2.75674 -0.9319,3.54914 -1.2079,1.43455 -2.5207,1.4518 -4.5623,0.12531 -0.3129,-0.22352 -1.0518,-1.11104 
			-1.4848,-1.88794 -2.5949,-4.6556 -6.168,-10.67093 -10.3454,-19.80572 l -1.5251,-3.33481 -4.1412,-0.16076 c -9.8711,-0.38322 -16.8071,-3.1831 -26.3384,-10.6321 -2.0294,-1.58607 -2.3496,-2.20541 -2.9278,-2.78368 -1.5435,
			-1.83807 -2.5471,-2.70079 -2.4625,-3.59296 0.085,-0.89217 8.5021,-6.72306 8.5021,-6.72306 95.4031,-75.440489 132.4703,-102.559189 167.5167,-122.556839 26.8712,-15.3328499 50.387404,-24.1921499 89.032294,-33.54134 14.19162,
			-3.43333 12.5299,-3.14855 17.86631,-3.06192 3.2072,0.0521 6.43541,0.30016 9.91489,0.76196 2.83771,0.37663 6.40961,0.7638 7.9374998,0.86041 9.53342005,0.60271 19.6389102,-3.05512 34.4351002,-12.46422 33.47172,-21.28506 57.5278,
			-32.95688 86.479506,-41.95914 25.06819,-7.7947 53.53791,-14.07968 78.44901,-15.57342 21.69409,-1.30086 45.43449,-0.39551 58.20828,1.19707 12.77382,1.59257 16.03211,-0.22293 18.5257,4.28899 0.12341,1.12345 -2.48909,2.23052 
			-2.5464,2.27455 -0.057,0.044 -3.55708,1.60648 -7.77719,3.47212 -44.4737,19.66111 -69.1429,32.23789 -89.94989,45.85796 -6.78881,4.44387 -14.44101,10.18452 -14.0702,10.55533 0.072,0.0721 1.7771,-0.29086 3.7891,-0.80651 31.89129,
			-8.17348 58.27839,-12.33285 103.5295,-16.31922 3.4149,-0.30083 6.45599,-0.48494 6.75809,-0.40912 2.38641,-0.13788 5.18851,2.58254 3.54269,3.90229 -1.64568,1.31976 -1.83649,1.0717 -6.64228,2.59439 -23.76591,7.53007 -35.48901,12.39167 
			-50.08412,20.7699101 -7.15949,4.10992 -21.20929,13.01863 -20.94629,13.28166 0.062,0.0615 1.5254,-0.12535 3.2531,-0.4153 10.569,-1.77378 23.31421,-2.51085 43.62241,-2.52269 21.3586,-0.0125 40.26099,2.96377 45.6401,3.31005 5.37919,
			0.34626 5.8066,0.82011 7.03789,1.60285 0.70831,0.54537 0.93289,2.29695 0.66881,2.65879 -0.26421,0.36184 -2.1481,2.8256899 -4.82441,3.4107499 -22.57661,4.93528 -34.18149,8.84995 -52.56649,17.7322 -2.9886,1.44385 -5.3843,2.67461 
			-5.32392,2.73503 0.06,0.0604 2.43102,-0.11234 5.26812,-0.38389 9.41538,-0.90124 17.229,-1.34402 26.45719,-1.49926 9.7264,-0.16362 15.38759,0.072 24.2093,1.00778 2.7649,0.29328 5.69471,0.37853 5.98871,0.38502 0.2939,0.007 
			1.55218,0.0371 1.90389,0.62697 0.35179,0.58991 1.31691,2.92403 0.46839,3.6664 -0.63688,0.55734 -0.99428,0.49381 -1.44179,0.66326 -0.4586,0.19024 -3.98889,1.39107 -7.84519,2.66853 -7.6473,2.53328 -15.13811,5.43144 
			-21.31031,8.24491 -4.5398,2.06936 -13.14101,6.40982 -15.85571,8.00134 l -1.84409,1.08112 0.76171,0.28961 c 7.46918,2.83977 28.8059,11.62701 37.58689,15.47966 17.48409,7.67112 36.05501,17.28438 53.5764,27.734079 
			21.41541,12.77199 37.0127,23.6297 54.3736,37.85108 2.47391,2.02649 4.6291,3.78624 4.7893,3.91054 0.185,0.14348 2.21411,-1.24029 5.5563,-3.78923 34.38049,-26.22034 61.0307,-43.109969 94.2022,-59.700799 27.59149,
			-13.79998 47.7184,-21.11727 66.6377,-24.22665 9.14712,-1.50331 15.4079,-1.99025 28.24429,-2.19668 0,0 6.69931,0.23476 8.30652,1.34685 1.1299,1.68264 0.69551,5.38541 -2.97072,8.33242 -3.6662,2.947 -75.17778,
			72.240149 -86.62408,85.341239 -10.87019,12.44179 -19.08921,24.49666 -31.39792,46.05173 -5.95429,10.42712 -10.67578,19.01155 -10.67578,19.40999 0,0.18629 0.70038,1.61025 1.55649,3.16436 5.0495,9.16692 8.0563,
			19.68908 10.06931,35.23711 0.97689,7.54581 1.87819,19.03044 2.92758,37.30625 3.04671,53.05774 6.4434,75.29946 14.6599,95.99326 5.60491,14.11648 13.3622,25.71539 26.64561,42.80874 1.4701,1.89177 2.40231,2.86329 
			2.42282,4.24053 0.0209,1.37724 -1.34721,2.92301 -3.38101,3.12605 -0.77531,-0.0493 -1.69341,-0.29363 -3.04242,-0.83418 z M -143.42739,125.30711 c 8.3393,-1.24519 13.7798,-3.12688 19.233,-6.65189 7.9361,-5.13012 
			17.6107,-16.05532 27.847304,-31.447189 8.9354,-13.43522 14.5064,-24.43475 17.8898,-35.32188 0.5879,-1.89177 1.3189,-4.13821 1.6244,-4.99207 0.3224,-0.90107 0.5219,-2.0113 0.4756,-2.64585 l -0.08,-1.09333 -1.9844,0.0252 
			c -3.1924,0.0406 -12.6267,1.69307 -18.2563,3.1977 -12.658604,3.3833 -24.421804,10.15225 -39.158304,22.53318 -4.2067,3.53428 -12.864,12.18875 -15.127,15.122 -6.0618,7.85731 -9.3228,15.03683 -11.3565,25.003129 -0.7464,
			3.65786 -0.8664,4.79081 -0.8824,8.33437 -0.02,4.38952 0.1386,5.06021 1.5057,6.37553 0.8858,0.85231 3.1126,1.80668 4.8623,2.08397 2.3148,0.36687 9.2625,0.0959 13.4067,-0.52292 z"/>
	  </g>
	</g>
</svg>
